<svg xmlns="http://www.w3.org/2000/svg" viewBox="0 0 280 300">
  <path fill="#FED868" d="M170 272.996c-10.367 1.007-20.379 3.362-30.209 2.759-27.12-1.665-52.296-9.406-74.605-25.914-16.055-11.88-29.227-26.136-38.752-43.42-7.075-12.839-11.633-26.794-14.56-41.371-2.62-13.05-2.534-26.167-1.375-39.01 1.029-11.394 4.852-22.718 8.686-33.635 6.875-19.576 18.69-36.13 34.1-49.975 5.435-4.882 11.574-8.977 17.356-13.476 2.148-1.671 3.322-1.057 4.536 1.231 1.667 3.142 3.673 6.112 5.644 9.083 1.583 2.386 1.11 4.149-1.24 5.631-19.185 12.093-32.902 28.986-42.088 49.453-5.732 12.77-8.98 26.28-9.49 40.463-.662 18.383 1.683 36.055 8.995 53.109 8.114 18.923 20.574 34.333 36.636 46.867 13.128 10.245 27.899 17.351 44.327 20.582 11.598 2.281 23.165 2.943 35.139 1.936 15.54-1.306 29.944-5.413 43.663-12.31 22.753-11.439 39.693-28.846 51.114-51.524 7.843-15.57 12.231-32.095 12.218-49.651v-2.844c5.128 0 9.928-.21 14.684.15 1.175.089 3.219 2.104 3.149 3.116-.575 8.311-.562 16.855-2.648 24.825-3.004 11.48-6.75 22.95-11.822 33.646-4.175 8.805-10.392 16.737-16.323 24.589-8.463 11.203-19.42 19.758-31.154 27.357-13.164 8.524-27.354 14.463-42.783 17.393-.945.18-1.842.619-3.198.94z"/>
  <path fill="#FED868" d="M70 109.067c-5.827 13.52-8.433 27.334-6.812 41.508 1.748 15.286 7.245 29.391 16.68 41.769 9.83 12.896 22.459 21.996 37.606 27.64 9.412 3.508 19.206 5.661 29.205 4.92 31.824-2.356 56.91-15.923 72.301-44.901 6.406-12.06 9.713-24.966 10.2-39.017 5.126 0 10.093-.176 15.027.148.995.065 2.726 2.078 2.664 3.105-.948 15.833-4.164 31.227-12.016 45.11-13.84 24.473-34.063 41.008-61.472 48.836-11.936 3.41-23.926 4.637-36.02 3.648-15.125-1.237-29.606-5.609-42.569-13.71-6.99-4.37-14.007-9.114-19.788-14.91-9.411-9.436-16.977-20.37-22.1-32.912-4.794-11.736-7.499-23.966-7.702-36.46-.237-14.526 2.05-28.865 7.984-42.366.965-2.193 2.039-4.339 3.206-6.812l16.119 9.06c-.9 1.813-1.68 3.382-2.513 5.344z"/>
  <path fill="#FED868" d="M180 176.75c9.193-10.256 15.046-21.522 14.237-35.77 5.52 0 10.644-.021 15.768.01 2.43.014 2.96.583 2.663 3.562-.941 9.481-2.872 18.48-7.287 27.043-9.685 18.786-24.675 30.793-45.21 35.326-26.633 5.88-49.056-2.33-66.804-22.532-9.257-10.536-14.704-23.187-15.154-37.585-.055-1.751-.635-3.486-1.031-5.539h17.733c1.858 23.482 12.82 41.346 35.966 48.19 17.842 5.275 34.858.678 49.119-12.705z"/>
</svg>